<svg width="128" height="70" viewBox="0 0 128 70" fill="none" xmlns="http://www.w3.org/2000/svg">
<path d="M10.44 39.64C8.17333 39.64 6.18667 39.0267 4.48 37.8C2.8 36.5733 1.62667 34.88 0.96 32.72L5.92 30.68C6.26667 31.96 6.82667 32.92 7.6 33.56C8.37333 34.2 9.32 34.52 10.44 34.52C11.6933 34.52 12.6667 34.12 13.36 33.32C14.0533 32.52 14.4 31.4 14.4 29.96V10.36H19.8V29.92C19.8 31.52 19.5467 32.9333 19.04 34.16C18.56 35.36 17.8933 36.3733 17.04 37.2C16.2133 38 15.2267 38.6 14.08 39C12.96 39.4267 11.7467 39.64 10.44 39.64ZM36.5075 36.92H36.1875C35.5742 37.6667 34.8275 38.3067 33.9475 38.84C33.0942 39.3733 31.9875 39.64 30.6275 39.64C29.6142 39.64 28.6542 39.4667 27.7475 39.12C26.8675 38.8 26.0942 38.3467 25.4275 37.76C24.7608 37.1733 24.2408 36.4667 23.8675 35.64C23.4942 34.8133 23.3075 33.9067 23.3075 32.92C23.3075 31.9067 23.5075 31 23.9075 30.2C24.3075 29.3733 24.8675 28.6667 25.5875 28.08C26.3075 27.4933 27.1475 27.0533 28.1075 26.76C29.0942 26.44 30.1608 26.28 31.3075 26.28C32.5875 26.28 33.6408 26.3867 34.4675 26.6C35.2942 26.7867 35.9742 26.9867 36.5075 27.2V26.6C36.5075 25.56 36.0942 24.7067 35.2675 24.04C34.4408 23.3467 33.4142 23 32.1875 23C30.3742 23 28.8408 23.76 27.5875 25.28L23.7875 22.68C25.8675 20.0667 28.7075 18.76 32.3075 18.76C35.3475 18.76 37.6675 19.48 39.2675 20.92C40.8675 22.3333 41.6675 24.44 41.6675 27.24V39H36.5075V36.92ZM36.5075 31.04C35.8942 30.7467 35.2542 30.52 34.5875 30.36C33.9475 30.1733 33.2408 30.08 32.4675 30.08C31.2142 30.08 30.2408 30.36 29.5475 30.92C28.8808 31.4533 28.5475 32.12 28.5475 32.92C28.5475 33.72 28.8675 34.36 29.5075 34.84C30.1742 35.32 30.9342 35.56 31.7875 35.56C32.4808 35.56 33.1208 35.44 33.7075 35.2C34.2942 34.9333 34.7875 34.6 35.1875 34.2C35.6142 33.7733 35.9342 33.2933 36.1475 32.76C36.3875 32.2 36.5075 31.6267 36.5075 31.04ZM45.8338 19.4H50.7538V22.12H51.0738C51.3138 21.64 51.6338 21.2 52.0338 20.8C52.4338 20.4 52.8738 20.0533 53.3538 19.76C53.8604 19.4667 54.3938 19.24 54.9538 19.08C55.5404 18.92 56.1138 18.84 56.6738 18.84C57.3671 18.84 57.9538 18.9067 58.4338 19.04C58.9404 19.1733 59.3671 19.3467 59.7138 19.56L58.3138 24.32C57.9938 24.16 57.6338 24.04 57.2338 23.96C56.8604 23.8533 56.3938 23.8 55.8338 23.8C55.1138 23.8 54.4604 23.9467 53.8737 24.24C53.2871 24.5067 52.7804 24.8933 52.3538 25.4C51.9538 25.9067 51.6338 26.5067 51.3938 27.2C51.1804 27.8667 51.0738 28.6 51.0738 29.4V39H45.8338V19.4ZM70.3228 39.64C68.0561 39.64 66.0695 39.0267 64.3628 37.8C62.6828 36.5733 61.5095 34.88 60.8428 32.72L65.8028 30.68C66.1495 31.96 66.7095 32.92 67.4828 33.56C68.2561 34.2 69.2028 34.52 70.3228 34.52C71.5761 34.52 72.5495 34.12 73.2428 33.32C73.9361 32.52 74.2828 31.4 74.2828 29.96V10.36H79.6828V29.92C79.6828 31.52 79.4295 32.9333 78.9228 34.16C78.4428 35.36 77.7761 36.3733 76.9228 37.2C76.0961 38 75.1095 38.6 73.9628 39C72.8428 39.4267 71.6295 39.64 70.3228 39.64ZM102.48 34.28C101.573 35.88 100.346 37.1733 98.7997 38.16C97.2797 39.1467 95.413 39.64 93.1997 39.64C91.7064 39.64 90.3197 39.3867 89.0397 38.88C87.7864 38.3467 86.693 37.6133 85.7597 36.68C84.8264 35.7467 84.093 34.6533 83.5597 33.4C83.053 32.12 82.7997 30.72 82.7997 29.2C82.7997 27.7867 83.053 26.4533 83.5597 25.2C84.0664 23.92 84.773 22.8133 85.6797 21.88C86.5864 20.92 87.653 20.16 88.8797 19.6C90.133 19.04 91.5064 18.76 92.9997 18.76C94.573 18.76 95.973 19.0267 97.1997 19.56C98.4264 20.0667 99.453 20.7867 100.28 21.72C101.106 22.6267 101.733 23.7067 102.16 24.96C102.586 26.2133 102.8 27.5733 102.8 29.04C102.8 29.2267 102.8 29.3867 102.8 29.52C102.773 29.68 102.76 29.8267 102.76 29.96C102.733 30.0933 102.72 30.24 102.72 30.4H87.9597C88.0664 31.2 88.2797 31.8933 88.5997 32.48C88.9464 33.04 89.3597 33.52 89.8397 33.92C90.3464 34.2933 90.893 34.5733 91.4797 34.76C92.0664 34.92 92.6664 35 93.2797 35C94.4797 35 95.4664 34.7333 96.2397 34.2C97.0397 33.64 97.6664 32.9467 98.1197 32.12L102.48 34.28ZM97.7197 26.68C97.693 26.3333 97.573 25.9467 97.3597 25.52C97.173 25.0933 96.8797 24.6933 96.4797 24.32C96.1064 23.9467 95.6264 23.64 95.0397 23.4C94.4797 23.16 93.7997 23.04 92.9997 23.04C91.8797 23.04 90.893 23.36 90.0397 24C89.1864 24.64 88.5864 25.5333 88.2397 26.68H97.7197ZM106.146 19.4H111.066V22.12H111.386C111.626 21.64 111.946 21.2 112.346 20.8C112.746 20.4 113.186 20.0533 113.666 19.76C114.173 19.4667 114.706 19.24 115.266 19.08C115.853 18.92 116.426 18.84 116.986 18.84C117.68 18.84 118.266 18.9067 118.746 19.04C119.253 19.1733 119.68 19.3467 120.026 19.56L118.626 24.32C118.306 24.16 117.946 24.04 117.546 23.96C117.173 23.8533 116.706 23.8 116.146 23.8C115.426 23.8 114.773 23.9467 114.186 24.24C113.6 24.5067 113.093 24.8933 112.666 25.4C112.266 25.9067 111.946 26.5067 111.706 27.2C111.493 27.8667 111.386 28.6 111.386 29.4V39H106.146V19.4Z" fill="#323232"/>
<path d="M23.952 59.474V65H22.296V52.112H29.82V53.696H23.952V57.926H29.244V59.474H23.952ZM30.3634 60.59C30.3634 59.234 30.7894 58.112 31.6414 57.224C32.5054 56.336 33.5914 55.892 34.8994 55.892C36.2074 55.892 37.2874 56.336 38.1394 57.224C39.0034 58.112 39.4354 59.234 39.4354 60.59C39.4354 61.958 39.0034 63.08 38.1394 63.956C37.2874 64.844 36.2074 65.288 34.8994 65.288C33.5914 65.288 32.5054 64.844 31.6414 63.956C30.7894 63.068 30.3634 61.946 30.3634 60.59ZM32.0194 60.59C32.0194 61.538 32.2954 62.306 32.8474 62.894C33.3994 63.482 34.0834 63.776 34.8994 63.776C35.7154 63.776 36.3994 63.482 36.9514 62.894C37.5034 62.306 37.7794 61.538 37.7794 60.59C37.7794 59.654 37.5034 58.892 36.9514 58.304C36.3874 57.704 35.7034 57.404 34.8994 57.404C34.0954 57.404 33.4114 57.704 32.8474 58.304C32.2954 58.892 32.0194 59.654 32.0194 60.59ZM40.4356 60.59C40.4356 59.234 40.8616 58.112 41.7136 57.224C42.5776 56.336 43.6636 55.892 44.9716 55.892C46.2796 55.892 47.3596 56.336 48.2116 57.224C49.0756 58.112 49.5076 59.234 49.5076 60.59C49.5076 61.958 49.0756 63.08 48.2116 63.956C47.3596 64.844 46.2796 65.288 44.9716 65.288C43.6636 65.288 42.5776 64.844 41.7136 63.956C40.8616 63.068 40.4356 61.946 40.4356 60.59ZM42.0916 60.59C42.0916 61.538 42.3676 62.306 42.9196 62.894C43.4716 63.482 44.1556 63.776 44.9716 63.776C45.7876 63.776 46.4716 63.482 47.0236 62.894C47.5756 62.306 47.8516 61.538 47.8516 60.59C47.8516 59.654 47.5756 58.892 47.0236 58.304C46.4596 57.704 45.7756 57.404 44.9716 57.404C44.1676 57.404 43.4836 57.704 42.9196 58.304C42.3676 58.892 42.0916 59.654 42.0916 60.59ZM54.9719 63.776C55.7879 63.776 56.4539 63.482 56.9699 62.894C57.5099 62.306 57.7799 61.538 57.7799 60.59C57.7799 59.666 57.5099 58.904 56.9699 58.304C56.4419 57.704 55.7759 57.404 54.9719 57.404C54.1799 57.404 53.5139 57.704 52.9739 58.304C52.4339 58.904 52.1639 59.666 52.1639 60.59C52.1639 61.526 52.4339 62.288 52.9739 62.876C53.5139 63.476 54.1799 63.776 54.9719 63.776ZM54.7019 65.288C53.5499 65.288 52.5599 64.832 51.7319 63.92C50.9159 62.996 50.5079 61.886 50.5079 60.59C50.5079 59.294 50.9159 58.184 51.7319 57.26C52.5599 56.348 53.5499 55.892 54.7019 55.892C55.3499 55.892 55.9379 56.03 56.4659 56.306C57.0059 56.582 57.4199 56.948 57.7079 57.404H57.7799L57.7079 56.18V52.112H59.3639V65H57.7799V63.776H57.7079C57.4199 64.232 57.0059 64.598 56.4659 64.874C55.9379 65.15 55.3499 65.288 54.7019 65.288ZM65.6261 65V52.112H69.5681C71.5361 52.112 73.1141 52.706 74.3021 53.894C75.5021 55.082 76.1021 56.636 76.1021 58.556C76.1021 60.488 75.5021 62.048 74.3021 63.236C73.1141 64.412 71.5361 65 69.5681 65H65.6261ZM67.2821 53.696V63.416H69.5681C71.0681 63.416 72.2501 62.99 73.1141 62.138C73.9781 61.274 74.4101 60.08 74.4101 58.556C74.4101 57.044 73.9781 55.856 73.1141 54.992C72.2501 54.128 71.0681 53.696 69.5681 53.696H67.2821ZM81.4797 65.288C80.1837 65.288 79.1157 64.844 78.2757 63.956C77.4357 63.068 77.0157 61.946 77.0157 60.59C77.0157 59.246 77.4237 58.13 78.2397 57.242C79.0557 56.342 80.0997 55.892 81.3717 55.892C82.6797 55.892 83.7177 56.318 84.4857 57.17C85.2657 58.01 85.6557 59.192 85.6557 60.716L85.6377 60.896H78.7077C78.7317 61.76 79.0197 62.456 79.5717 62.984C80.1237 63.512 80.7837 63.776 81.5517 63.776C82.6077 63.776 83.4357 63.248 84.0357 62.192L85.5117 62.912C85.1157 63.656 84.5637 64.238 83.8557 64.658C83.1597 65.078 82.3677 65.288 81.4797 65.288ZM78.8337 59.528H83.8917C83.8437 58.916 83.5917 58.412 83.1357 58.016C82.6917 57.608 82.0917 57.404 81.3357 57.404C80.7117 57.404 80.1717 57.596 79.7157 57.98C79.2717 58.364 78.9777 58.88 78.8337 59.528ZM88.8261 52.112V65H87.1701V52.112H88.8261ZM92.9859 53.138C92.9859 53.462 92.8719 53.738 92.6439 53.966C92.4159 54.194 92.1399 54.308 91.8159 54.308C91.4919 54.308 91.2159 54.194 90.9879 53.966C90.7599 53.738 90.6459 53.462 90.6459 53.138C90.6459 52.814 90.7599 52.538 90.9879 52.31C91.2159 52.082 91.4919 51.968 91.8159 51.968C92.1399 51.968 92.4159 52.082 92.6439 52.31C92.8719 52.538 92.9859 52.814 92.9859 53.138ZM92.6439 56.18V65H90.9879V56.18H92.6439ZM99.083 65H97.427L93.863 56.18H95.663L98.255 63.02H98.291L100.919 56.18H102.683L99.083 65ZM107.46 65.288C106.164 65.288 105.096 64.844 104.256 63.956C103.416 63.068 102.996 61.946 102.996 60.59C102.996 59.246 103.404 58.13 104.22 57.242C105.036 56.342 106.08 55.892 107.352 55.892C108.66 55.892 109.698 56.318 110.466 57.17C111.246 58.01 111.636 59.192 111.636 60.716L111.618 60.896H104.688C104.712 61.76 105 62.456 105.552 62.984C106.104 63.512 106.764 63.776 107.532 63.776C108.588 63.776 109.416 63.248 110.016 62.192L111.492 62.912C111.096 63.656 110.544 64.238 109.836 64.658C109.14 65.078 108.348 65.288 107.46 65.288ZM104.814 59.528H109.872C109.824 58.916 109.572 58.412 109.116 58.016C108.672 57.608 108.072 57.404 107.316 57.404C106.692 57.404 106.152 57.596 105.696 57.98C105.252 58.364 104.958 58.88 104.814 59.528ZM114.807 65H113.151V56.18H114.735V57.62H114.807C114.975 57.152 115.317 56.756 115.833 56.432C116.361 56.096 116.877 55.928 117.381 55.928C117.861 55.928 118.269 56 118.605 56.144L118.101 57.746C117.897 57.662 117.573 57.62 117.129 57.62C116.505 57.62 115.959 57.872 115.491 58.376C115.035 58.88 114.807 59.468 114.807 60.14V65ZM127.749 56.18L122.223 68.888H120.513L122.565 64.442L118.929 56.18H120.729L123.357 62.516H123.393L125.949 56.18H127.749Z" fill="#2D2D2D"/>
</svg>
