<svg width="356" height="356" viewBox="0 0 356 356" fill="none" xmlns="http://www.w3.org/2000/svg">
<path d="M351.037 258.428L345.294 252.186V162.73C345.294 158.89 342.181 155.777 338.342 155.777H335.056C334.707 148.775 333.268 141.542 328.859 135.483C321.457 125.312 308.742 121.996 296.447 118.788C288.289 116.659 280.582 114.65 275.45 110.914C270.421 107.254 266.186 100.608 261.704 93.5722C254.827 82.7796 247.717 71.6198 235.584 67.6802C223.953 63.9032 211.895 68.6035 200.234 73.1474C192.549 76.1421 184.603 79.2383 177.921 79.2383C171.339 79.2383 163.461 76.1901 155.841 73.2434C144.114 68.7071 131.987 64.0166 120.28 67.8853C108.263 71.859 101.228 82.9986 94.426 93.7717C89.951 100.86 85.7228 107.556 80.6679 111.25C75.5546 114.987 67.8401 116.989 59.673 119.109C47.4049 122.294 34.7176 125.586 27.3042 135.706C22.9056 141.71 21.4371 148.858 21.0512 155.777H17.6581C13.8179 155.777 10.7057 158.89 10.7057 162.73V252.186L4.96313 258.428C-0.12307 263.956 -1.40731 271.664 1.61104 278.544C1.65832 278.652 1.70629 278.759 1.75497 278.865C1.7793 278.918 1.80433 278.971 1.82867 279.024C4.46459 284.619 9.47501 288.4 15.4116 289.421C15.6918 289.469 337.314 289.698 337.314 289.698C344.827 289.698 351.369 285.424 354.388 278.544C357.409 271.666 356.124 263.957 351.037 258.428ZM331.389 169.682V237.072L316.237 220.602C318.548 214.087 319.718 207.258 319.718 200.243C319.718 189.115 316.723 178.673 311.496 169.682H331.389ZM205.282 86.1031C215.104 82.2768 224.378 78.6612 231.29 80.9057C238.673 83.3031 244.163 91.9208 249.977 101.044C254.957 108.863 260.109 116.947 267.267 122.156C274.527 127.439 283.887 129.881 292.938 132.243C303.327 134.953 313.14 137.512 317.617 143.665C319.943 146.862 320.843 151.241 321.131 155.777H300.436C289.519 145.529 274.84 139.244 258.72 139.244C253.453 139.244 248.256 139.912 243.217 141.233L195.763 89.6534C198.967 88.5638 202.144 87.3262 205.282 86.1031ZM305.812 200.243C305.812 203.037 305.573 205.792 305.097 208.494L254.362 153.347C255.804 153.215 257.258 153.149 258.719 153.149C284.686 153.149 305.812 174.275 305.812 200.243ZM38.5216 143.923C43.0071 137.801 52.7991 135.259 63.1669 132.568C72.2373 130.213 81.6177 127.779 88.8733 122.476C96.067 117.219 101.21 109.073 106.184 101.195C111.931 92.0925 117.36 83.4957 124.646 81.0872C131.621 78.7808 140.949 82.3902 150.826 86.2109C153.92 87.4075 157.051 88.6188 160.209 89.6868L114.16 139.74C111.577 139.411 108.965 139.244 106.355 139.244C90.2347 139.244 75.556 145.529 64.6382 155.777H34.9839C35.3016 151.341 36.2208 147.064 38.5216 143.923ZM101.603 153.386L59.2655 199.404C59.6869 175.418 78.1293 155.748 101.603 153.386ZM24.6112 169.682H53.5758C48.3499 178.673 45.3538 189.115 45.3538 200.243C45.3538 204.567 45.8078 208.863 46.7047 213.057L24.6112 237.072V169.682ZM341.656 272.958C341.282 273.811 340.109 275.794 337.316 275.794H18.6851C15.8899 275.794 14.7183 273.81 14.3443 272.958C14.3151 272.891 14.2838 272.816 14.2525 272.734C14.24 272.701 14.2275 272.666 14.2142 272.631C14.208 272.614 14.2017 272.596 14.1955 272.578C14.183 272.541 14.1704 272.504 14.1579 272.465C14.1517 272.446 14.1454 272.426 14.1392 272.406C13.8158 271.351 13.6288 269.546 15.196 267.844L174.511 94.6777C174.951 94.1986 175.425 93.8663 175.888 93.6368C176.713 93.228 177.502 93.1459 178 93.1459C178.776 93.1459 180.263 93.3448 181.489 94.677L191.222 105.256L92.961 212.059C90.3613 214.885 90.5441 219.283 93.3706 221.883C96.1963 224.483 100.594 224.3 103.195 221.473L200.669 115.525L340.804 267.842C342.696 269.9 342.031 272.105 341.656 272.958Z" fill="black"/>
<path d="M83.9832 232.538L83.9115 232.466C81.2026 229.744 76.8013 229.734 74.0791 232.443C71.357 235.151 71.3466 239.553 74.0555 242.275L74.1271 242.347C75.4857 243.712 77.2706 244.395 79.0548 244.395C80.8285 244.395 82.603 243.72 83.9588 242.37C86.6817 239.661 86.6921 235.259 83.9832 232.538Z" fill="black"/>
<path d="M218.737 205.756L216.561 203.579C213.846 200.864 209.444 200.864 206.729 203.579C204.013 206.294 204.013 210.696 206.728 213.411L208.904 215.587C210.261 216.945 212.041 217.625 213.82 217.625C215.599 217.625 217.378 216.946 218.736 215.588C221.452 212.873 221.452 208.471 218.737 205.756Z" fill="black"/>
<path d="M265.724 210.072L263.547 207.895C260.83 205.18 256.429 205.18 253.714 207.895C250.998 210.611 250.998 215.013 253.714 217.728L255.891 219.905C257.248 221.263 259.027 221.942 260.806 221.942C262.586 221.942 264.366 221.263 265.723 219.905C268.439 217.19 268.439 212.787 265.724 210.072Z" fill="black"/>
<path d="M247.866 247.529L245.69 245.352C242.974 242.636 238.573 242.636 235.857 245.35C233.141 248.065 233.141 252.467 235.855 255.183L238.031 257.36C239.389 258.718 241.169 259.397 242.948 259.397C244.727 259.397 246.506 258.718 247.864 257.362C250.579 254.647 250.58 250.245 247.866 247.529Z" fill="black"/>
</svg>
